<?xml version="1.0" standalone="no"?>
<!DOCTYPE svg PUBLIC "-//W3C//DTD SVG 20010904//EN"
 "http://www.w3.org/TR/2001/REC-SVG-20010904/DTD/svg10.dtd">
<svg version="1.0" xmlns="http://www.w3.org/2000/svg"
 width="24.000000pt" height="24.000000pt" viewBox="0 0 24.000000 24.000000"
 preserveAspectRatio="xMidYMid meet">

<g transform="translate(0.000000,24.000000) scale(0.100000,-0.100000)"
fill="#000000" stroke="none">
<path d="M170 225 c-14 -17 -7 -50 15 -79 15 -20 15 -20 30 0 34 44 26 94 -15
94 -10 0 -23 -7 -30 -15z m57 -11 c6 -15 -14 -64 -27 -64 -13 0 -33 49 -27 64
4 9 16 16 27 16 11 0 23 -7 27 -16z"/>
<path d="M190 200 c0 -5 5 -10 10 -10 6 0 10 5 10 10 0 6 -4 10 -10 10 -5 0
-10 -4 -10 -10z"/>
<path d="M19 139 c-16 -16 -20 -29 -15 -50 5 -29 44 -89 56 -89 12 0 51 60 56
89 7 33 -23 71 -56 71 -11 0 -29 -9 -41 -21z m75 -5 c9 -8 16 -23 16 -32 0
-22 -37 -82 -50 -82 -13 0 -50 60 -50 82 0 22 27 48 50 48 10 0 26 -7 34 -16z"/>
<path d="M34 116 c-10 -26 4 -48 28 -44 33 4 33 52 0 56 -13 2 -25 -3 -28 -12z
m42 -7 c10 -17 -13 -36 -27 -22 -12 12 -4 33 11 33 5 0 12 -5 16 -11z"/>
<path d="M180 100 c-9 -6 -10 -10 -3 -10 6 0 15 5 18 10 8 12 4 12 -15 0z"/>
<path d="M147 93 c-4 -3 -7 -11 -7 -17 0 -6 5 -5 12 2 6 6 9 14 7 17 -3 3 -9
2 -12 -2z"/>
<path d="M125 49 c-4 -6 -5 -12 -2 -15 2 -3 7 2 10 11 7 17 1 20 -8 4z"/>
</g>
</svg>
