<svg version="1.0" xmlns="http://www.w3.org/2000/svg"
 width="32.000000pt" height="32.000000pt" viewBox="0 0 32.000000 32.000000"
 preserveAspectRatio="xMidYMid meet">

<g transform="translate(0.000000,32.000000) scale(0.100000,-0.100000)"
fill="#000000" stroke="none">
<path d="M140 266 c-27 -33 18 -72 48 -42 13 13 14 20 6 34 -15 23 -38 26 -54
8z m40 -21 c0 -8 -7 -15 -15 -15 -8 0 -15 7 -15 15 0 8 7 15 15 15 8 0 15 -7
15 -15z"/>
<path d="M107 192 c-18 -20 -23 -62 -8 -62 5 0 11 10 13 22 2 12 8 23 14 25 7
2 9 -8 6 -27 -5 -34 40 -110 64 -110 9 0 4 14 -16 42 -29 40 -40 88 -20 88 6
0 10 -4 10 -10 0 -12 40 -34 48 -26 3 4 -4 13 -16 22 -12 8 -22 22 -22 30 0 8
-6 14 -14 14 -8 0 -21 2 -28 5 -8 3 -22 -3 -31 -13z"/>
<path d="M107 64 c-15 -20 -16 -24 -3 -24 17 0 40 36 29 43 -5 3 -16 -6 -26
-19z"/>
</g>
</svg>
