<?xml version="1.0" standalone="no"?>
<!DOCTYPE svg PUBLIC "-//W3C//DTD SVG 20010904//EN"
 "http://www.w3.org/TR/2001/REC-SVG-20010904/DTD/svg10.dtd">
<svg version="1.0" xmlns="http://www.w3.org/2000/svg"
 width="1568.000000pt" height="1568.000000pt" viewBox="0 0 1568.000000 1568.000000"
 preserveAspectRatio="xMidYMid meet">
<metadata>
Created by potrace 1.14, written by Peter Selinger 2001-2017
</metadata>
<g transform="translate(0.000000,1568.000000) scale(0.100000,-0.100000)"
fill="#000000" stroke="none">
<path d="M8018 10615 c-2 -2 -43 -6 -93 -9 -49 -3 -101 -8 -115 -10 -14 -3
-47 -7 -75 -10 -27 -3 -59 -7 -70 -10 -11 -2 -58 -11 -105 -20 -117 -22 -115
-22 -210 -46 -47 -12 -121 -33 -165 -48 -44 -14 -82 -27 -85 -27 -3 -1 -12 -5
-20 -8 -8 -3 -46 -18 -85 -32 -77 -28 -82 -30 -240 -106 -92 -44 -306 -164
-340 -191 -17 -14 -112 -82 -136 -98 -12 -8 -30 -22 -39 -30 -9 -8 -45 -40
-81 -69 -102 -87 -258 -249 -332 -346 -4 -5 -21 -28 -38 -50 -97 -125 -192
-281 -275 -451 -35 -73 -64 -136 -64 -139 0 -4 -6 -21 -14 -38 -30 -72 -47
-117 -75 -212 -17 -55 -32 -111 -35 -125 -3 -14 -10 -43 -15 -65 -6 -22 -10
-41 -11 -42 0 -2 0 -4 -1 -5 0 -2 -2 -12 -3 -23 -2 -11 -8 -47 -14 -80 -12
-70 -19 -116 -29 -223 -9 -91 -9 -503 0 -582 3 -30 8 -75 11 -100 6 -61 16
-132 21 -150 2 -8 7 -31 10 -50 3 -19 10 -51 15 -70 5 -19 12 -50 15 -69 3
-19 10 -42 16 -52 5 -11 8 -19 5 -19 -10 0 78 -252 129 -365 98 -221 262 -485
402 -645 12 -14 31 -36 43 -50 44 -52 162 -169 211 -211 29 -24 57 -49 63 -54
6 -6 31 -26 56 -45 25 -19 47 -37 50 -40 17 -18 235 -161 305 -201 147 -82
355 -177 475 -215 25 -8 54 -19 65 -24 11 -6 29 -12 40 -13 11 -2 27 -7 35
-10 8 -3 29 -9 45 -13 41 -10 45 -11 48 -14 7 -5 243 -54 312 -64 23 -4 50 -8
60 -10 18 -3 85 -11 175 -21 128 -14 500 -25 500 -15 0 3 37 5 83 6 126 1 295
17 407 38 14 3 42 7 63 10 59 9 176 34 237 51 30 9 64 18 74 20 10 2 33 9 51
15 18 6 41 12 51 15 23 5 150 51 179 65 11 5 49 21 85 36 69 28 229 110 318
163 84 49 261 172 298 206 6 6 31 26 55 45 44 35 281 269 309 306 8 11 27 34
43 52 39 48 44 38 -61 130 -33 29 -71 63 -84 75 -13 12 -55 49 -93 82 -38 33
-86 77 -107 98 -21 20 -43 37 -48 37 -5 0 -13 6 -17 13 -6 10 -127 121 -220
202 -16 14 -143 127 -163 145 -9 8 -36 33 -61 55 -25 22 -85 76 -133 120 -108
97 -128 113 -133 98 -9 -26 -175 -199 -268 -278 -82 -71 -244 -178 -329 -219
-79 -37 -217 -83 -275 -92 -20 -3 -43 -7 -51 -10 -65 -22 -391 -23 -486 -1
-12 3 -37 8 -55 11 -75 12 -208 53 -223 67 -6 5 -15 9 -22 9 -23 0 -181 93
-249 148 -132 105 -219 211 -299 364 -43 84 -93 201 -99 234 -2 11 -9 37 -15
59 -6 22 -13 51 -16 65 -3 14 -7 36 -11 50 -3 14 -7 48 -10 75 -3 28 -7 61
-10 75 -6 26 -6 261 -1 320 3 31 8 73 21 165 10 70 78 290 96 309 5 6 9 18 9
28 0 10 5 18 10 18 6 0 10 7 10 15 0 16 84 161 122 210 46 60 185 192 244 232
53 36 181 108 194 110 3 0 23 8 45 17 43 18 194 59 260 71 80 14 387 14 465 0
189 -34 331 -91 508 -202 121 -76 336 -271 415 -375 l28 -37 31 27 c17 15 46
41 63 57 18 17 59 53 91 81 33 29 70 62 84 75 14 13 57 51 95 84 38 33 83 74
101 90 28 27 69 64 207 185 22 19 50 44 61 55 12 11 60 54 106 95 83 73 114
101 195 175 22 20 55 48 73 62 17 14 32 30 32 36 0 39 -270 320 -428 445 -112
89 -245 182 -261 182 -5 0 -11 4 -13 8 -10 25 -332 183 -483 237 -27 10 -55
22 -61 27 -7 5 -16 8 -20 6 -5 -1 -47 11 -94 26 -47 15 -123 36 -170 47 -109
26 -119 28 -155 34 -16 2 -41 7 -55 9 -14 3 -43 7 -65 11 -22 3 -53 8 -70 10
-36 6 -102 14 -170 21 -55 5 -572 13 -577 9z"/>
<path d="M2378 9395 c-2 -2 -45 -5 -97 -9 -52 -4 -104 -8 -115 -11 -12 -2 -39
-6 -61 -9 -22 -3 -49 -7 -60 -9 -11 -3 -42 -8 -70 -12 -27 -5 -52 -9 -55 -10
-67 -19 -88 -25 -105 -28 -16 -3 -45 -11 -115 -32 -3 -1 -18 -5 -34 -10 -16
-4 -41 -14 -55 -21 -14 -8 -32 -14 -39 -14 -7 0 -32 -9 -57 -20 -25 -11 -65
-29 -90 -40 -25 -11 -47 -20 -49 -20 -2 0 -52 -27 -112 -61 -113 -62 -247
-150 -298 -194 -16 -14 -32 -25 -36 -25 -13 0 -265 -252 -318 -317 -113 -139
-221 -320 -286 -478 -36 -85 -93 -254 -100 -295 -3 -14 -12 -56 -20 -95 -8
-38 -17 -92 -21 -120 -4 -27 -9 -61 -11 -75 -2 -14 -6 -113 -8 -221 -3 -174 7
-325 28 -434 4 -16 9 -46 12 -65 5 -27 57 -213 78 -275 16 -49 86 -204 119
-265 17 -30 35 -65 41 -77 6 -13 14 -23 19 -23 4 0 7 -5 7 -11 0 -13 132 -196
179 -249 60 -67 165 -171 214 -213 27 -23 55 -47 61 -53 25 -23 213 -155 246
-171 19 -10 37 -21 40 -25 9 -11 260 -133 325 -158 33 -12 69 -26 80 -30 31
-13 55 -20 59 -17 1 1 10 -4 19 -12 10 -7 17 -11 17 -7 0 3 12 1 28 -5 15 -6
34 -12 42 -14 8 -2 58 -15 110 -28 52 -14 129 -30 170 -37 41 -7 84 -14 95
-16 11 -2 43 -7 70 -10 28 -3 61 -8 75 -10 51 -9 230 -17 395 -18 161 0 432
11 445 19 3 2 31 6 61 9 30 3 66 8 82 11 15 3 39 7 55 10 15 3 43 8 62 11 39
6 226 52 250 61 8 4 17 7 20 8 3 1 12 4 20 7 8 3 33 11 55 18 22 7 56 20 75
28 19 9 37 16 40 17 3 0 33 15 66 32 34 17 65 29 68 26 3 -4 6 -1 6 5 0 7 5
12 10 12 10 0 211 118 220 130 3 3 21 17 40 30 19 13 37 27 40 30 3 3 25 21
50 41 25 20 75 66 113 101 l68 66 -454 457 -453 457 -104 -70 c-160 -106 -381
-205 -462 -206 -16 -1 -28 -3 -28 -6 0 -4 -10 -7 -22 -7 -13 -1 -57 -5 -98 -9
-296 -29 -569 22 -738 138 -107 74 -225 223 -256 324 l-6 21 1440 -1 c792 -1
1448 2 1458 5 12 4 17 18 18 50 1 24 5 85 9 134 8 97 9 330 1 435 -21 291
-110 625 -218 818 -51 90 -64 112 -103 172 -134 206 -333 413 -515 535 -25 16
-47 33 -50 36 -6 7 -219 129 -225 129 -3 0 -42 17 -87 39 -46 21 -101 44 -123
51 -22 7 -44 16 -50 21 -5 5 -19 9 -31 9 -13 0 -25 4 -28 9 -3 5 -16 11 -28
14 -13 3 -59 15 -103 27 -44 12 -91 24 -105 26 -14 3 -41 9 -60 14 -19 5 -51
11 -70 14 -19 3 -44 7 -55 10 -11 2 -49 7 -85 11 -36 4 -81 9 -100 12 -35 5
-427 12 -432 8z m360 -1201 c117 -29 238 -99 312 -181 45 -49 93 -113 85 -113
-4 0 2 -12 12 -27 33 -50 83 -173 83 -208 0 -7 -224 -10 -675 -10 l-676 0 6
25 c4 14 8 32 10 40 15 67 86 208 131 258 13 15 35 39 49 55 14 15 28 27 33
27 4 0 14 9 22 20 8 11 18 20 22 20 5 0 25 11 46 23 134 85 364 115 540 71z"/>
<path d="M13058 9395 c-2 -1 -43 -5 -93 -8 -101 -7 -173 -14 -225 -23 -19 -3
-48 -7 -65 -9 -138 -20 -383 -88 -545 -153 -76 -30 -251 -112 -260 -122 -3 -3
-21 -14 -40 -24 -46 -25 -167 -103 -205 -133 -16 -13 -35 -27 -40 -31 -103
-74 -291 -259 -370 -363 -27 -35 -52 -66 -55 -69 -34 -29 -233 -391 -244 -443
-3 -11 -6 -22 -23 -64 -3 -10 -7 -20 -8 -23 0 -3 -10 -34 -22 -70 -20 -63 -46
-177 -57 -250 -3 -19 -8 -46 -11 -60 -29 -139 -23 -540 10 -710 4 -19 9 -46
11 -60 1 -14 8 -45 14 -70 7 -25 13 -52 15 -60 7 -32 58 -187 72 -220 43 -100
125 -261 157 -309 20 -29 36 -55 36 -58 0 -3 32 -48 72 -101 61 -83 290 -323
354 -372 11 -9 46 -36 79 -60 33 -25 62 -48 63 -52 2 -5 8 -8 14 -8 5 0 30
-15 56 -32 26 -18 63 -41 82 -51 19 -11 46 -26 60 -35 40 -26 148 -76 250
-116 84 -34 117 -45 215 -75 31 -10 106 -30 137 -37 10 -2 27 -6 38 -9 53 -13
67 -16 95 -20 17 -2 75 -11 130 -19 276 -44 741 -39 985 9 14 3 43 7 64 10 48
6 220 49 259 64 15 6 27 8 27 6 0 -3 16 1 35 9 20 9 36 15 38 15 11 -1 145 51
225 88 41 18 75 33 77 33 13 0 292 168 322 194 33 29 43 36 52 36 5 0 11 3 13
8 2 4 30 29 63 57 280 230 526 590 637 930 74 228 103 421 102 695 0 196 -7
272 -34 415 -6 28 -12 61 -14 75 -3 14 -5 25 -6 25 -1 0 -3 9 -5 20 -7 35 -27
109 -35 130 -9 22 -20 54 -19 58 2 13 -130 298 -142 307 -3 3 -19 28 -33 55
-15 28 -42 70 -61 95 -19 25 -34 49 -34 53 -1 5 -7 14 -13 21 -7 7 -26 29 -41
49 -88 112 -293 317 -316 317 -5 0 -11 4 -13 9 -1 4 -41 36 -88 69 -47 34 -90
66 -97 72 -7 5 -14 10 -17 10 -2 0 -37 19 -78 43 -65 38 -146 79 -258 130 -51
23 -168 67 -220 82 -167 48 -166 48 -295 73 -89 18 -134 25 -225 38 -99 13
-541 28 -552 19z m280 -1358 c39 -7 123 -34 172 -56 122 -56 225 -162 296
-306 39 -77 48 -105 75 -225 14 -60 18 -324 7 -405 -31 -218 -119 -392 -259
-510 -138 -117 -360 -166 -558 -123 -127 27 -222 78 -311 168 -122 121 -183
254 -216 465 -15 93 -9 323 11 430 17 91 104 295 126 295 5 0 9 4 9 10 0 19
93 115 148 153 73 49 163 85 262 104 13 2 26 5 27 7 4 4 177 -2 211 -7z"/>
</g>
</svg>
